<svg width="24" height="24" viewBox="0 0 24 24" fill="none" xmlns="http://www.w3.org/2000/svg">
<path fill-rule="evenodd" clip-rule="evenodd" d="M17.1938 5.46598C17.0178 5.46598 16.8435 5.50064 16.6809 5.56799C16.5183 5.63535 16.3706 5.73407 16.2461 5.85852L6.48843 15.6162L5.77767 18.2223L8.38378 17.5116L18.1415 7.75387C18.2659 7.62942 18.3647 7.48167 18.432 7.31907C18.4994 7.15647 18.534 6.98219 18.534 6.80619C18.534 6.63019 18.4994 6.45591 18.432 6.29331C18.3647 6.13071 18.2659 5.98297 18.1415 5.85852C18.017 5.73407 17.8693 5.63535 17.7067 5.56799C17.5441 5.50064 17.3698 5.46598 17.1938 5.46598ZM16.1199 4.21361C16.4604 4.07258 16.8253 4 17.1938 4C17.5623 4 17.9272 4.07258 18.2677 4.21361C18.6082 4.35463 18.9175 4.56134 19.1781 4.82191C19.4387 5.08249 19.6454 5.39185 19.7864 5.73231C19.9274 6.07277 20 6.43768 20 6.80619C20 7.17471 19.9274 7.53961 19.7864 7.88008C19.6454 8.22054 19.4387 8.52989 19.1781 8.79047L9.28274 18.6858C9.19254 18.776 9.08037 18.8411 8.9573 18.8747L4.92587 19.9742C4.6721 20.0434 4.4007 19.9713 4.2147 19.7853C4.02871 19.5993 3.95663 19.3279 4.02584 19.0741L5.12533 15.0427C5.15889 14.9196 5.22399 14.8075 5.31419 14.7173L15.2095 4.82191C15.4701 4.56134 15.7795 4.35463 16.1199 4.21361Z" fill="white"/>
</svg>
